<svg width="462" height="444" viewBox="0 0 462 444" fill="none" xmlns="http://www.w3.org/2000/svg">
<path d="M0 144C70.5 173.5 70.5 173.5 100 244C129.884 174.77 130.496 174.501 199.194 144.354L200 144L198.496 143.362C130.484 114.496 129.286 113.988 100 44C70.6067 114.245 70.004 114.499 0.75654 143.681L0 144Z" fill="#DD7344"/>
<path d="M309.5 0H143C143 46 214 78 256.5 78C322 78 365 77.5001 365 142C365 206.5 320.339 206.5 298 206.5H267.975C198.939 206.5 143 262.445 143 331.48L143 444H253V304.504C253 293.162 261.581 285.32 272.904 285.978C284.363 286.643 303.743 287.138 338.5 286.5C447.5 284.5 463.48 206.5 461 136C458.52 65.5001 402 0 309.5 0Z" fill="white"/>
</svg>
